# xmcd
#
# Track frame offsets:
#	150
#	24242
#	46910
#	60205
#	74552
#	90800
#	103055
#	124095
#	139967
#	164085
#	185347
#	198859
#	218955
#
# Disc length: 3177 seconds
#
# Revision: 0
# Processed by: cddbd v1.4PL0 Copyright (c) Steve Scherf et al.
# Submitted via: EasyCDDAExtractor 4.5.0.2
#
DISCID=b20c670d
DTITLE=Nine Below Zero - Chilled
DYEAR=2002
DGENRE=Blues
TTITLE0=I Should Have Left It Up To You
TTITLE1=Why Don't You Try Me Tonight
TTITLE2=Spanish Harlem
TTITLE3=Why Can't We Be Want We Want To Be
TTITLE4=Egg On My Face
TTITLE5=You Don't Love Me
TTITLE6=Loaded Gun
TTITLE7=Ballad Of Dombovar
TTITLE8=White Boys Lost In The Blues
TTITLE9=Bring It On Love To Me
TTITLE10=How Sweet It Is ( To Be Loved By You )
TTITLE11=One Foot In Heaven, One Foot In Hell
TTITLE12=Helen
EXTD=
EXTT0=
EXTT1=
EXTT2=
EXTT3=
EXTT4=
EXTT5=
EXTT6=
EXTT7=
EXTT8=
EXTT9=
EXTT10=
EXTT11=
EXTT12=
PLAYORDER=
